<?xml version="1.0" standalone="no"?>
<!DOCTYPE svg PUBLIC "-//W3C//DTD SVG 20010904//EN"
 "http://www.w3.org/TR/2001/REC-SVG-20010904/DTD/svg10.dtd">
<svg version="1.0" xmlns="http://www.w3.org/2000/svg"
 width="900.000000pt" height="900.000000pt" viewBox="0 0 900.000000 900.000000"
 preserveAspectRatio="xMidYMid meet">
<metadata>
Created by potrace 1.11, written by Peter Selinger 2001-2013
</metadata>
<g transform="translate(0.000000,900.000000) scale(0.100000,-0.100000)"
fill="#000000" stroke="none">
<path d="M4449 8325 c-9 -34 -34 -85 -42 -85 -4 0 -6 -4 -2 -9 3 -5 -2 -16
-10 -25 -9 -8 -15 -18 -15 -21 2 -11 -25 -65 -33 -65 -5 0 -6 -4 -3 -8 11 -18
-12 -30 -69 -36 -33 -4 -83 -10 -112 -15 -29 -4 -59 -6 -68 -5 -34 5 -10 -32
76 -115 90 -87 91 -88 84 -127 -3 -21 -8 -55 -11 -74 -3 -19 -10 -53 -15 -75
-14 -66 -12 -77 14 -69 12 4 24 10 27 13 3 4 37 22 75 41 39 19 72 37 75 41
16 21 50 16 110 -16 36 -19 85 -44 110 -57 25 -12 49 -27 53 -32 11 -16 3 75
-17 177 l-18 89 97 94 c53 51 94 98 90 104 -3 6 -9 9 -13 7 -4 -3 -34 0 -67 4
-33 5 -82 11 -110 14 -27 3 -55 8 -61 10 -12 3 -59 95 -56 108 1 4 -2 7 -8 7
-5 0 -9 3 -7 8 3 10 -56 122 -65 122 -5 0 -9 -2 -9 -5z"/>
<path d="M3583 8031 c1 -5 -14 -40 -33 -79 l-35 -70 -54 -11 c-30 -6 -67 -11
-82 -11 -64 0 -64 -10 0 -70 33 -32 57 -60 54 -64 -4 -3 1 -6 11 -6 13 0 15
-6 11 -27 -3 -16 -8 -50 -11 -78 -4 -27 -10 -60 -15 -72 -7 -18 -5 -21 11 -20
11 1 20 4 20 7 0 3 15 11 33 19 17 8 34 17 37 20 11 13 51 31 68 31 27 0 113
-46 104 -55 -4 -5 -2 -5 4 -2 6 4 20 0 30 -8 20 -15 48 -20 40 -7 -6 11 -14
53 -22 117 -3 27 -8 53 -10 57 -3 5 24 36 60 70 36 34 66 67 66 74 0 7 -26 14
-62 17 -35 3 -72 8 -83 11 -11 2 -25 5 -31 5 -6 1 -28 37 -48 81 -21 44 -44
80 -52 80 -8 0 -13 -4 -11 -9z"/>
<path d="M5276 7960 c-20 -44 -42 -80 -49 -81 -7 0 -21 -3 -32 -6 -11 -2 -46
-7 -78 -10 -31 -3 -60 -9 -63 -14 -3 -5 24 -37 60 -72 68 -67 68 -67 53 -142
-12 -58 -18 -117 -10 -113 4 2 27 12 51 23 23 11 42 23 42 27 0 5 9 8 20 8 11
0 20 5 20 10 0 19 78 3 100 -20 7 -7 94 -50 101 -50 4 0 1 28 -6 63 -25 120
-25 134 1 147 13 7 21 16 19 20 -2 4 7 13 20 20 13 7 22 17 19 22 -3 4 1 8 8
8 8 0 21 13 30 28 l17 28 -42 2 c-35 2 -101 11 -129 18 -5 1 -13 2 -19 3 -5 0
-7 6 -4 11 3 6 2 10 -4 10 -10 0 -27 38 -23 53 1 4 -3 7 -9 7 -5 0 -8 4 -4 9
3 5 0 13 -5 16 -6 4 -15 18 -20 31 -5 13 -13 24 -18 24 -5 0 -25 -36 -46 -80z"/>
<path d="M2897 7809 c-9 -6 -15 -14 -12 -20 4 -5 1 -9 -4 -9 -6 0 -11 -3 -10
-7 3 -19 -15 -53 -30 -57 -9 -3 -37 -8 -63 -12 -27 -3 -48 -9 -48 -13 0 -4 18
-24 40 -45 39 -37 40 -39 34 -89 -4 -29 -8 -55 -10 -58 -2 -4 3 -9 11 -13 8
-3 15 -1 15 4 0 6 9 10 21 10 11 0 18 4 15 9 -3 5 9 12 28 15 25 5 46 0 82
-18 27 -14 50 -24 51 -22 2 1 -2 30 -8 64 -11 59 -10 62 15 86 14 15 30 26 36
26 6 0 8 5 5 10 -3 6 -1 10 4 10 6 0 11 4 11 9 0 6 -21 13 -47 17 -27 5 -51 9
-55 10 -5 1 -13 2 -19 3 -5 0 -8 5 -5 10 4 5 2 11 -2 13 -5 1 -15 20 -23 40
-12 30 -17 35 -32 27z"/>
<path d="M6000 7798 c0 -10 -4 -18 -10 -18 -5 0 -9 -3 -8 -7 1 -5 -1 -18 -5
-30 -6 -16 -21 -24 -58 -32 -27 -6 -57 -11 -64 -11 -23 0 -18 -8 26 -51 44
-42 45 -49 25 -146 -3 -13 -4 -23 -2 -23 1 0 25 11 52 25 46 24 98 26 114 6
12 -15 50 -30 55 -21 3 5 1 30 -5 56 -9 38 -8 51 5 70 8 13 20 24 26 24 6 0 7
5 4 10 -3 6 -1 10 5 10 15 0 41 26 33 34 -4 3 -16 6 -27 6 -12 0 -38 5 -58 11
-32 8 -41 17 -58 58 -21 47 -50 65 -50 29z"/>
<path d="M4235 7328 c-71 -3 -218 -8 -325 -11 -107 -3 -202 -8 -210 -11 -8 -2
-65 -7 -125 -10 -61 -2 -117 -7 -125 -10 -8 -3 -54 -7 -102 -9 -48 -3 -91 -7
-95 -10 -5 -3 -35 -6 -68 -8 -33 -1 -72 -6 -87 -10 -15 -4 -51 -9 -80 -10 -29
-2 -64 -6 -78 -10 -14 -4 -63 -13 -110 -19 -85 -11 -159 -24 -235 -40 -22 -5
-67 -14 -100 -20 -60 -12 -195 -42 -270 -61 -22 -6 -47 -11 -55 -12 -8 -2 -19
-5 -25 -8 -5 -4 -28 -10 -50 -14 -22 -4 -73 -18 -114 -32 -41 -13 -82 -25 -92
-26 -11 -1 -19 -4 -19 -7 0 -4 -22 -12 -50 -19 -27 -7 -51 -18 -52 -24 0 -7
-2 -23 -3 -37 -1 -14 -6 -52 -10 -85 -9 -72 -13 -112 -20 -185 -11 -118 -15
-135 -32 -147 -15 -12 -53 -18 -77 -14 -5 1 -12 -2 -15 -7 -3 -5 -24 -12 -46
-15 -46 -6 -122 -22 -180 -38 -22 -5 -56 -14 -75 -18 -90 -21 -177 -44 -192
-52 -10 -5 -29 -9 -42 -9 -14 0 -28 -4 -31 -10 -3 -5 -16 -10 -28 -10 -12 0
-31 -7 -41 -15 -11 -8 -15 -15 -9 -15 9 0 16 -15 29 -65 1 -5 9 -29 17 -52 9
-22 13 -44 10 -47 -4 -3 -1 -6 5 -6 7 0 11 -3 10 -7 -2 -10 22 -94 30 -108 4
-5 7 -14 8 -20 1 -5 5 -22 9 -36 5 -22 3 -27 -17 -31 -13 -3 -59 -13 -103 -22
-44 -9 -91 -21 -105 -26 -14 -5 -38 -11 -55 -14 -43 -8 -101 -22 -169 -40 -33
-9 -67 -18 -75 -20 -9 -2 -25 -6 -36 -10 -53 -20 -72 -26 -90 -29 -11 -2 -27
-7 -35 -10 -8 -3 -24 -8 -35 -10 -103 -27 -259 -96 -275 -121 -7 -12 -9 -18
-6 -14 6 5 60 -8 116 -29 8 -3 22 -7 30 -9 16 -3 86 -23 110 -32 8 -3 20 -6
27 -8 15 -3 83 -24 103 -31 8 -3 24 -8 35 -10 11 -2 27 -6 35 -10 8 -3 22 -7
30 -9 8 -2 56 -17 107 -34 51 -16 102 -30 113 -30 11 0 20 -4 20 -10 0 -5 3
-9 8 -8 16 6 134 -37 139 -49 3 -8 -2 -22 -11 -32 -9 -10 -16 -22 -16 -28 0
-6 -10 -23 -22 -39 -13 -16 -23 -31 -22 -34 2 -7 -28 -53 -39 -61 -5 -3 -8
-10 -7 -15 1 -8 -57 -112 -70 -124 -3 -3 -11 -17 -19 -32 -8 -16 -18 -28 -23
-28 -5 0 -6 -4 -3 -10 3 -5 1 -10 -6 -10 -7 0 -10 -3 -6 -6 3 -3 -19 -41 -49
-85 -29 -43 -51 -79 -48 -79 3 0 -1 -7 -8 -15 -30 -34 -38 -45 -32 -45 4 0 -5
-13 -21 -30 -16 -16 -25 -30 -20 -30 4 0 0 -9 -10 -20 -24 -27 -8 -25 67 5 34
14 69 25 78 25 9 0 20 3 23 7 9 8 107 43 107 38 0 -3 20 4 45 15 25 11 55 21
68 23 12 2 29 7 37 10 15 6 125 38 125 37 0 -1 7 1 15 4 8 2 26 7 40 9 14 3
52 12 86 21 34 8 72 17 85 20 13 2 36 9 50 14 15 6 30 8 33 5 3 -3 18 -1 33 5
15 6 44 13 64 15 20 3 41 7 45 10 5 2 37 8 72 11 l62 7 1 -78 c2 -128 6 -233
13 -323 4 -47 9 -110 11 -140 7 -95 15 -177 31 -300 4 -30 8 -65 10 -77 1 -13
5 -41 9 -63 4 -22 8 -50 10 -63 2 -19 7 -48 22 -122 2 -11 6 -36 9 -55 3 -19
8 -38 10 -41 2 -3 6 -19 8 -35 8 -42 14 -65 25 -101 5 -18 7 -33 3 -33 -3 0
-1 -5 6 -12 7 -7 12 -19 12 -28 0 -8 14 -56 30 -105 17 -50 32 -94 33 -100 15
-57 132 -305 149 -316 5 -3 10 -10 10 -15 1 -12 30 -57 43 -66 5 -4 7 -8 3 -8
-7 0 27 -41 79 -97 12 -12 20 -23 18 -23 -3 0 14 -17 37 -37 23 -21 61 -56 84
-78 66 -64 185 -169 210 -186 13 -8 21 -19 17 -22 -3 -4 1 -7 10 -7 9 0 17 -4
17 -8 0 -5 11 -15 25 -22 13 -7 22 -17 19 -22 -3 -4 1 -8 8 -8 8 0 20 -9 28
-20 8 -11 18 -20 23 -20 4 0 19 -11 32 -24 14 -14 41 -37 62 -53 21 -15 44
-35 53 -43 9 -8 33 -28 54 -45 22 -16 49 -40 62 -52 13 -13 28 -23 34 -23 6 0
8 -4 5 -10 -3 -5 1 -10 9 -10 9 0 16 -4 16 -10 0 -5 6 -10 13 -10 7 0 19 -9
27 -20 8 -11 20 -20 28 -20 7 0 10 -4 7 -10 -3 -5 -1 -10 5 -10 6 0 17 -6 24
-13 7 -6 28 -23 46 -37 18 -14 49 -40 69 -57 20 -18 40 -33 45 -33 5 0 16 -8
25 -18 17 -18 56 -51 111 -92 18 -14 39 -31 46 -37 7 -7 18 -13 24 -13 6 0 8
-4 5 -10 -3 -5 -1 -10 5 -10 6 0 17 -6 24 -12 7 -7 28 -24 46 -38 18 -14 40
-32 50 -40 10 -8 32 -26 50 -40 18 -14 39 -31 46 -37 7 -7 17 -13 23 -13 6 0
11 -4 11 -8 0 -5 11 -15 25 -22 13 -7 22 -17 19 -22 -3 -4 1 -8 8 -8 7 0 25
-10 39 -23 15 -12 41 -33 59 -47 18 -14 39 -31 46 -38 7 -6 15 -12 19 -12 4 0
12 -6 19 -13 7 -6 28 -23 46 -37 18 -14 41 -32 50 -40 10 -8 28 -23 39 -33 12
-9 26 -17 32 -17 5 0 7 -5 4 -10 -3 -6 1 -10 9 -10 9 0 16 -4 16 -10 0 -5 7
-10 15 -10 8 0 15 -4 15 -10 0 -5 7 -10 16 -10 8 0 12 -4 9 -10 -3 -5 -1 -10
4 -10 10 0 36 -19 66 -48 8 -6 19 -12 25 -12 6 0 8 -4 5 -10 -3 -5 0 -10 7
-10 12 0 37 -18 106 -77 28 -24 62 -31 62 -13 0 6 4 10 10 10 5 0 19 8 31 17
11 10 33 28 47 40 15 13 33 23 40 23 7 0 10 5 7 10 -3 6 0 10 9 10 8 0 16 3
18 8 2 4 46 40 98 81 52 41 97 78 98 83 2 4 8 8 13 8 8 0 35 20 64 47 8 7 18
13 24 13 6 0 11 5 11 10 0 6 7 10 16 10 8 0 12 5 9 10 -3 6 -1 10 5 10 6 0 17
6 24 13 7 6 28 23 46 37 18 14 44 35 59 47 14 13 32 23 40 23 8 0 12 3 8 6 -3
4 22 27 56 52 34 25 67 50 73 56 6 6 26 22 44 36 18 14 38 30 44 35 6 6 31 26
56 45 25 19 47 38 48 42 2 5 8 8 13 8 6 0 20 10 33 22 12 13 38 34 56 48 18
14 38 30 44 35 6 6 27 22 46 35 19 13 42 32 51 42 9 10 20 18 25 18 5 0 15 9
22 20 7 11 19 20 28 20 8 0 12 5 9 10 -3 6 -1 10 4 10 11 0 27 12 90 67 20 18
42 33 49 33 7 0 11 4 8 8 -3 5 6 15 19 22 14 7 25 17 25 22 0 4 7 8 16 8 8 0
12 5 9 10 -3 6 -1 10 4 10 11 0 38 20 77 58 13 12 26 22 29 22 3 0 13 8 23 18
10 9 38 33 61 52 42 35 86 72 128 110 12 11 27 20 33 20 6 0 8 5 5 10 -3 5 -2
10 4 10 9 0 58 40 117 98 13 12 28 22 34 22 6 0 8 5 5 10 -3 6 -2 10 4 10 13
0 220 204 252 249 13 18 32 41 42 49 9 9 17 22 17 28 0 6 7 17 15 24 8 7 13
16 10 20 -3 5 -1 10 4 12 11 4 124 228 115 228 -4 0 -2 6 4 13 5 6 19 41 31
77 12 36 26 73 31 82 6 10 10 27 10 38 0 11 4 20 9 20 5 0 8 8 6 18 -1 9 2 25
7 35 5 10 11 27 14 38 3 17 10 42 18 74 1 6 5 19 9 30 3 11 8 37 11 57 2 21 7
41 9 45 3 5 8 28 12 53 4 25 8 47 10 50 2 3 6 26 10 50 3 25 12 81 20 125 8
44 17 105 20 135 3 30 8 73 12 95 3 22 7 54 8 70 2 17 6 59 9 95 13 145 27
364 31 468 2 79 6 88 32 77 10 -4 36 -10 58 -12 22 -2 47 -6 55 -10 8 -3 26
-7 40 -9 92 -11 603 -140 685 -173 11 -5 52 -18 90 -31 77 -24 93 -30 148 -54
21 -9 43 -14 48 -11 7 5 -13 49 -31 65 -3 3 -21 30 -40 60 -19 30 -38 57 -42
58 -5 2 -6 8 -2 13 3 5 1 9 -4 9 -5 0 -15 14 -22 30 -7 17 -16 30 -21 30 -5 0
-9 4 -9 10 0 5 -21 42 -47 82 -26 40 -47 76 -45 81 1 4 -3 7 -8 7 -6 0 -10 5
-10 10 0 6 -17 39 -39 73 -51 82 -116 200 -116 210 0 4 4 7 9 6 5 0 12 3 15 8
3 5 26 14 51 21 67 19 69 19 145 43 39 11 82 23 98 26 15 3 30 9 33 14 3 5 16
9 30 9 13 0 32 4 42 9 19 10 82 30 109 36 10 2 40 11 66 20 27 9 57 17 68 18
10 1 19 5 19 9 0 4 11 8 25 8 14 0 33 4 43 9 9 5 38 15 65 23 26 7 47 18 47
25 0 12 -86 60 -120 68 -13 3 -42 13 -115 41 -47 18 -337 98 -435 120 -36 9
-72 18 -80 21 -8 3 -26 7 -40 9 -13 2 -61 12 -105 23 -44 11 -97 22 -117 26
-36 6 -36 6 -27 38 6 18 12 39 14 47 2 8 10 34 19 58 8 23 16 46 16 50 0 4 5
23 10 42 5 19 9 38 10 43 0 4 7 21 15 37 8 16 15 31 14 32 0 2 7 29 16 61 20
69 14 81 -48 91 -23 4 -62 11 -87 15 -101 20 -167 32 -195 37 -16 3 -68 12
-115 20 -47 9 -110 19 -140 24 -74 12 -114 20 -118 25 -4 4 -7 34 -17 150 -3
39 -8 81 -10 95 -3 14 -7 58 -10 98 -2 40 -7 76 -9 81 -3 4 -22 13 -43 19 -21
6 -67 21 -102 32 -35 11 -72 20 -82 20 -10 0 -20 4 -23 9 -3 5 -20 11 -38 14
-18 3 -51 10 -73 16 -75 19 -220 52 -255 57 -19 3 -42 8 -50 11 -8 3 -23 8
-32 9 -65 13 -202 38 -248 45 -78 12 -122 19 -146 24 -11 2 -45 7 -75 10 -30
4 -60 8 -67 10 -7 3 -40 7 -75 11 -34 3 -78 9 -97 13 -19 4 -64 9 -100 10 -35
1 -68 5 -72 8 -5 2 -50 7 -101 9 -50 3 -98 7 -106 10 -7 2 -64 7 -125 10 -61
3 -122 7 -134 10 -63 13 -788 30 -947 22z m108 -227 c4 -1 7 -19 7 -41 0 -38
-1 -40 -32 -41 -125 -4 -113 0 -114 -42 l-1 -38 63 2 c35 1 66 0 68 -2 3 -3 7
-19 11 -36 6 -40 -5 -48 -70 -49 -27 -1 -55 -2 -61 -3 -10 -1 -11 -21 -5 -83
1 -3 29 -6 64 -6 34 0 68 0 75 -1 7 -1 12 -16 12 -41 0 -37 -2 -40 -27 -41
-148 -4 -216 -3 -220 5 -3 5 -8 100 -10 212 l-5 203 54 3 c44 2 164 2 191 -1z
m293 -3 c2 -3 6 -14 9 -24 2 -11 13 -48 25 -84 12 -36 24 -72 25 -80 2 -8 9
-37 15 -65 7 -27 14 -59 16 -70 2 -11 7 -37 13 -57 7 -32 6 -38 -8 -39 -19 -1
-85 2 -88 4 0 1 -4 19 -7 41 -9 54 -11 56 -70 56 -52 0 -54 -1 -61 -32 -4 -18
-8 -40 -9 -48 -1 -11 -16 -16 -54 -18 -48 -3 -53 -1 -48 15 3 10 8 32 11 50 3
18 9 43 14 56 6 14 7 28 4 31 -3 3 -1 11 4 18 5 7 16 39 23 71 7 31 17 57 22
57 5 0 7 4 4 9 -4 5 -1 22 6 38 6 15 12 35 12 43 1 22 40 37 91 35 25 -1 48
-5 51 -7z m314 -65 c19 -38 36 -70 37 -72 1 -2 9 3 17 12 8 8 12 17 9 21 -4 3
-2 6 4 6 5 0 18 18 28 39 21 47 54 63 110 53 l40 -7 -1 -65 c-4 -174 -12 -328
-18 -339 -4 -6 -25 -11 -46 -11 l-40 0 5 139 c4 101 2 142 -6 147 -7 4 -9 3
-5 -4 3 -6 0 -16 -7 -24 -7 -7 -13 -15 -13 -18 1 -14 -67 -101 -77 -97 -15 5
-89 118 -91 139 -1 3 -4 10 -8 14 -5 4 -8 -59 -8 -139 l0 -147 -50 0 -51 0 7
138 c7 159 12 252 13 270 1 8 20 12 59 12 l58 0 34 -67z m-890 23 c0 -27 -4
-36 -17 -38 -28 -2 -36 -4 -59 -11 -23 -8 -23 -26 -10 -243 l6 -91 -42 -7
c-22 -4 -45 -3 -50 2 -5 5 -12 52 -14 103 -6 114 -11 200 -13 216 -1 7 -21 13
-48 15 -46 3 -47 4 -51 40 l-3 37 48 3 c26 2 94 4 151 6 l102 3 0 -35z m-589
-78 c0 -29 2 -66 4 -83 12 -85 13 -175 2 -176 -7 -1 -23 -2 -37 -3 -14 -2 -77
-6 -141 -10 -64 -4 -127 -9 -140 -11 -13 -2 -58 -7 -99 -10 -116 -10 -141 -12
-200 -19 -30 -4 -71 -9 -90 -11 -64 -7 -145 -17 -160 -20 -8 -2 -42 -6 -75 -9
-64 -7 -119 -16 -255 -40 -47 -8 -103 -18 -125 -21 -22 -4 -49 -9 -60 -11 -11
-2 -40 -6 -64 -9 l-43 -6 6 60 c15 138 19 155 34 157 4 0 15 4 24 8 9 4 22 9
30 10 7 2 20 6 28 9 8 4 24 8 35 10 11 2 27 7 35 10 13 5 81 24 120 32 8 2 30
9 49 14 19 6 37 9 39 6 3 -3 10 0 17 5 7 5 25 12 41 14 16 2 36 6 44 9 42 15
169 37 184 31 10 -4 21 -2 25 3 10 18 565 102 729 112 l42 2 1 -53z m2229 26
c210 -26 430 -58 540 -79 74 -15 160 -30 190 -36 78 -13 132 -25 240 -54 52
-14 104 -27 115 -29 67 -14 80 -18 97 -27 10 -5 18 -7 18 -4 0 3 15 -1 34 -9
19 -8 37 -12 39 -10 5 5 12 -43 23 -149 l5 -58 -33 6 c-45 8 -74 12 -133 19
-27 3 -61 8 -75 11 -14 3 -47 7 -75 10 -27 3 -57 8 -65 10 -8 2 -44 7 -80 10
-36 3 -76 8 -90 10 -14 2 -54 7 -90 11 -36 3 -72 7 -80 9 -8 2 -49 6 -90 9
-41 4 -95 9 -120 11 -25 3 -74 7 -110 10 -36 4 -87 8 -115 10 -27 3 -88 7
-135 11 -47 3 -94 7 -105 9 -11 1 -43 3 -72 4 l-52 1 4 38 c4 47 18 231 19
256 0 17 7 18 81 11 44 -3 96 -9 115 -11z m-795 -625 c11 -5 17 -107 6 -113
-4 -3 -40 -6 -79 -7 l-72 -2 -1 -259 c-1 -142 -3 -262 -4 -268 -1 -5 -3 -14
-4 -20 -1 -12 -121 -13 -140 -1 -12 7 -15 58 -16 268 -3 292 -2 283 -12 282
-5 -1 -38 -1 -74 0 l-67 1 -3 38 c-2 20 -3 49 -1 64 l3 28 207 2 c114 2 216 0
227 -3 11 -4 25 -8 30 -10z m-621 -9 c6 -6 20 -10 33 -10 13 0 23 -4 23 -10 0
-5 6 -10 14 -10 9 0 12 -7 9 -20 -3 -11 -10 -20 -15 -20 -5 0 -6 -4 -3 -10 3
-5 2 -10 -4 -10 -5 0 -13 -9 -16 -20 -9 -28 -45 -34 -90 -16 -80 34 -155 7
-155 -54 0 -54 34 -72 165 -87 22 -2 43 -9 46 -15 3 -5 9 -9 13 -9 23 3 36 0
31 -9 -3 -5 0 -10 7 -10 48 0 75 -201 36 -274 -15 -29 -59 -66 -78 -66 -9 0
-21 -5 -27 -11 -16 -16 -193 -15 -235 1 -75 29 -88 35 -93 48 -10 28 51 110
79 106 10 -1 32 -9 50 -18 41 -19 113 -29 121 -16 3 6 15 10 26 10 10 0 18 3
17 8 0 4 2 15 6 25 5 9 6 27 3 40 -12 43 -32 60 -88 68 -86 13 -112 19 -144
34 -29 13 -72 55 -57 55 4 0 0 5 -8 10 -24 15 -21 176 5 223 11 20 26 37 33
37 7 0 11 4 8 9 -18 29 260 49 288 21z m996 -1 c5 -7 7 -16 4 -20 -2 -4 0 -10
6 -14 5 -3 10 -17 10 -30 0 -13 4 -26 9 -29 5 -3 11 -18 14 -33 3 -16 15 -64
27 -108 22 -82 30 -113 49 -200 28 -125 32 -146 38 -192 5 -45 5 -45 -42 -45
-14 0 -44 0 -68 1 l-43 1 -3 43 c-1 23 -5 58 -9 77 l-8 35 -84 5 c-47 3 -92 3
-101 -2 -9 -4 -19 -24 -22 -45 -10 -67 -18 -98 -26 -106 -12 -12 -146 6 -144
20 1 6 5 26 8 44 7 41 49 199 74 278 10 33 16 63 13 66 -3 3 1 5 8 5 7 0 10 3
7 6 -3 4 -2 15 4 26 6 11 13 31 15 46 3 14 8 30 12 36 3 6 7 16 9 21 5 26 29
81 38 87 6 4 6 8 2 8 -4 0 -3 8 2 19 9 17 21 18 102 16 63 -2 94 -7 99 -16z
m480 -6 c69 -3 127 -9 128 -14 2 -5 9 -9 15 -9 14 0 74 -50 61 -50 -5 0 -3 -4
4 -9 7 -4 15 -14 16 -22 2 -8 8 -27 15 -44 16 -39 21 -94 10 -101 -5 -3 -9
-14 -9 -25 0 -10 -4 -19 -10 -19 -5 0 -10 -6 -10 -12 0 -7 -16 -31 -36 -53
-31 -35 -34 -45 -29 -78 3 -20 23 -77 46 -125 22 -48 41 -89 41 -92 1 -3 8
-11 15 -18 7 -7 13 -18 13 -23 0 -10 -76 -12 -133 -2 -36 5 -41 11 -68 67 -16
34 -39 93 -52 131 l-24 70 -41 3 -42 3 -1 -43 c-3 -121 -7 -189 -13 -204 -5
-14 -15 -16 -64 -10 -31 4 -63 8 -69 8 -11 1 -18 25 -14 50 0 3 3 55 6 115 3
59 8 130 10 157 3 26 8 101 12 165 8 149 10 175 13 181 1 3 2 9 1 14 -1 5 17
6 41 2 24 -4 99 -10 168 -13z m-1894 -8 c-1 -8 -12 -26 -24 -40 -12 -14 -19
-25 -17 -25 6 0 -7 -18 -43 -55 -12 -14 -21 -27 -20 -29 2 -2 -7 -16 -19 -30
-13 -14 -20 -26 -15 -26 4 0 2 -4 -3 -8 -16 -11 -71 -85 -77 -102 -2 -8 0 -20
6 -26 34 -35 76 -84 72 -84 -2 0 10 -15 27 -34 58 -62 96 -106 91 -106 -2 0
11 -16 31 -35 41 -41 44 -55 13 -56 -13 0 -32 -3 -43 -6 -11 -2 -42 -7 -70 -9
-48 -5 -51 -4 -72 29 -13 18 -31 42 -41 53 -10 10 -29 35 -42 54 -13 19 -31
41 -38 49 -8 8 -25 31 -38 53 -13 21 -29 38 -34 38 -10 0 -10 -21 5 -212 3
-39 1 -69 -5 -73 -6 -3 -41 -9 -80 -12 l-70 -6 -2 47 c0 25 -2 63 -3 84 -3 43
-14 253 -20 397 -3 55 -7 110 -9 122 -6 30 10 40 80 48 47 5 64 3 70 -7 8 -13
11 -54 13 -189 1 -51 5 -68 17 -73 8 -3 13 -2 9 3 -3 5 1 15 8 23 19 19 128
187 125 191 -2 2 4 11 12 20 8 9 21 23 28 32 18 22 181 22 178 0z m-658 -45
c2 -5 12 -10 23 -10 10 0 19 -7 19 -15 0 -21 -48 -115 -59 -115 -5 0 -26 6
-48 14 -46 16 -78 14 -121 -8 -29 -15 -34 -22 -31 -42 0 -4 -4 -10 -10 -13
-20 -13 -13 -230 9 -256 4 -5 9 -14 9 -20 0 -5 12 -22 27 -37 33 -35 94 -38
152 -7 l40 22 25 -25 c25 -25 50 -64 53 -84 2 -12 -44 -38 -106 -61 -41 -15
-206 -18 -215 -3 -3 6 -15 10 -26 10 -10 0 -19 4 -19 8 0 5 -10 14 -23 21 -30
16 -73 98 -83 159 -2 12 -6 34 -9 50 -20 102 -8 284 20 304 5 4 6 8 2 8 -4 0
3 15 17 33 28 36 93 73 141 81 51 8 209 -2 213 -14z m3257 -15 c72 -24 99 -46
90 -74 -10 -31 -74 -93 -88 -85 -7 4 -24 16 -39 26 -15 10 -49 21 -75 25 -53
6 -79 -11 -86 -58 -8 -44 20 -71 87 -85 75 -15 169 -65 172 -91 0 -5 5 -17 10
-28 11 -25 6 -180 -6 -180 -1 0 -3 -9 -5 -19 -2 -10 -9 -22 -15 -26 -7 -4 -10
-11 -8 -15 1 -4 -6 -13 -17 -19 -11 -6 -22 -14 -25 -17 -8 -11 -113 -29 -140
-25 -14 2 -47 7 -74 11 -53 7 -126 40 -165 74 -24 21 -24 21 -5 43 56 66 86
85 104 63 32 -39 151 -67 180 -42 32 27 38 51 24 88 -12 29 -22 37 -62 48 -26
7 -54 15 -62 18 -8 2 -16 4 -18 3 -1 0 -24 11 -51 25 -64 35 -81 71 -77 167 1
41 7 81 12 89 5 8 9 17 9 20 0 11 49 64 70 75 11 6 45 12 75 13 30 2 56 4 58
5 4 5 74 -11 127 -29z m-3883 -28 c57 -20 87 -48 113 -104 38 -83 48 -140 49
-283 0 -78 -5 -117 -18 -152 -10 -27 -22 -48 -27 -48 -4 0 -10 -8 -14 -19 -7
-22 -72 -55 -137 -70 -91 -21 -166 -10 -233 33 -32 21 -61 56 -57 69 1 4 -2 7
-8 7 -6 0 -9 3 -8 8 1 4 -4 21 -11 37 -41 98 -50 319 -17 401 26 64 82 105
160 118 16 3 31 8 34 11 10 10 137 5 174 -8z m4465 -42 c31 -7 32 -10 27 -39
-4 -17 -8 -40 -9 -51 -10 -69 -18 -116 -27 -160 -5 -27 -11 -66 -13 -85 -3
-19 -7 -46 -10 -60 -3 -14 -7 -36 -10 -50 -26 -162 -38 -226 -42 -233 -3 -5
-19 -6 -37 -2 -17 3 -49 9 -71 12 -43 6 -58 19 -49 43 3 8 10 40 14 70 14 90
21 133 26 160 3 14 7 36 9 50 2 14 7 41 10 60 3 19 8 46 10 60 12 77 36 208
41 223 5 16 13 18 52 14 26 -3 62 -9 79 -12z m-5057 -37 c87 -44 137 -165 103
-248 -8 -19 -16 -39 -17 -45 -1 -5 -10 -23 -20 -38 -16 -24 -17 -31 -6 -55 8
-15 14 -29 15 -32 1 -6 36 -61 50 -77 5 -7 16 -19 23 -28 7 -8 10 -15 6 -15
-3 0 8 -13 25 -29 16 -15 27 -31 24 -35 -3 -3 -1 -6 5 -6 7 0 12 -7 12 -17 0
-9 -3 -14 -6 -10 -3 3 -17 2 -30 -3 -13 -6 -47 -10 -74 -11 -45 -2 -52 1 -84
37 -20 21 -36 44 -36 51 0 6 -4 13 -8 15 -5 2 -25 33 -45 69 -36 65 -38 66
-70 60 -30 -6 -32 -10 -33 -51 -1 -24 2 -59 7 -79 15 -66 17 -132 5 -137 -6
-2 -26 -5 -44 -7 -17 -2 -35 -7 -39 -10 -10 -11 -53 -8 -54 3 -1 6 -2 13 -3
18 -2 4 -6 34 -10 67 -5 33 -10 67 -12 77 -2 16 -11 78 -20 148 -2 19 -6 46
-9 60 -3 14 -7 45 -10 70 -2 25 -7 58 -10 74 -3 15 -8 47 -10 70 -2 22 -7 51
-11 64 -4 15 -2 22 7 23 8 0 23 3 34 5 18 4 78 14 210 33 61 9 102 5 135 -11z
m5295 -9 c22 -5 54 -12 70 -14 29 -5 45 -9 141 -34 23 -6 52 -11 66 -11 13 0
33 -6 43 -14 18 -13 18 -17 5 -71 l-14 -57 -40 6 c-127 21 -118 24 -132 -46
-2 -13 -6 -32 -9 -43 -4 -19 -7 -33 -20 -95 -11 -53 -15 -71 -20 -92 -3 -13
-7 -32 -9 -43 -2 -11 -9 -38 -14 -60 -6 -22 -13 -52 -16 -68 -11 -62 -14 -66
-54 -60 -61 9 -117 30 -117 44 -1 8 5 37 13 64 7 28 15 61 17 75 2 14 6 35 9
48 3 12 8 32 11 45 11 52 16 73 19 92 3 11 13 59 24 108 19 84 19 87 2 87 -11
0 -22 5 -25 10 -3 6 -17 10 -30 10 -13 0 -36 5 -50 12 -23 10 -25 16 -21 47 3
20 5 41 6 48 1 28 28 41 67 31 21 -5 56 -14 78 -19z m-3438 -864 c0 -8 -7 -15
-14 -15 -8 0 -11 -4 -8 -10 3 -5 2 -10 -3 -10 -6 0 -31 -20 -56 -45 -26 -25
-45 -45 -42 -45 2 0 -10 -15 -27 -34 -60 -65 -78 -86 -72 -86 4 0 0 -7 -7 -15
-24 -27 -33 -40 -75 -110 -38 -63 -93 -174 -100 -200 -1 -5 -16 -53 -33 -105
-46 -138 -50 -154 -50 -183 0 -14 -5 -38 -10 -53 -11 -27 -15 -370 -5 -411 13
-57 15 -69 17 -100 1 -18 6 -33 12 -33 5 0 7 -2 4 -5 -3 -3 3 -38 14 -78 11
-40 22 -82 25 -94 3 -13 9 -23 12 -23 4 0 8 -6 8 -12 2 -19 27 -82 36 -89 5
-3 9 -13 11 -21 1 -9 8 -23 15 -32 7 -9 10 -16 5 -16 -5 0 -4 -4 2 -8 6 -4 21
-27 34 -51 21 -42 29 -54 58 -86 7 -8 10 -15 5 -15 -4 0 -3 -4 2 -8 6 -4 22
-23 35 -42 14 -19 39 -50 57 -68 18 -18 40 -43 49 -57 15 -24 13 -26 -281
-320 -320 -320 -306 -300 -250 -346 11 -9 30 -25 41 -35 12 -11 36 -30 54 -44
18 -14 39 -31 46 -37 7 -7 17 -13 23 -13 6 0 11 -4 11 -10 0 -5 9 -10 21 -10
11 0 18 -4 15 -8 -3 -5 10 -15 29 -22 19 -7 32 -17 29 -22 -3 -4 2 -8 10 -8 9
0 31 -9 51 -20 20 -11 42 -20 50 -20 8 0 15 -4 15 -10 0 -5 9 -10 20 -10 11 0
20 -4 20 -10 0 -5 14 -10 31 -10 17 0 28 -4 24 -10 -4 -6 6 -10 24 -10 16 0
33 -4 36 -10 3 -5 17 -10 30 -10 13 0 27 -4 30 -10 3 -5 21 -10 40 -10 19 0
36 -4 39 -9 16 -25 448 -35 566 -12 36 6 82 14 103 18 20 3 40 9 43 14 3 5 19
9 35 9 18 0 28 4 24 10 -4 6 6 10 24 10 16 0 33 5 36 10 3 6 17 10 31 10 13 0
24 5 24 10 0 6 6 10 14 10 7 0 49 19 92 41 44 23 89 47 101 53 13 6 23 14 23
19 0 4 7 7 15 7 8 0 15 5 15 10 0 6 7 10 15 10 8 0 15 5 15 10 0 6 7 10 16 10
8 0 12 5 9 10 -3 6 -1 10 4 10 6 0 20 8 32 17 11 10 33 28 47 40 15 13 31 23
35 23 5 0 5 5 2 10 -3 6 -2 10 3 10 5 0 30 20 55 45 26 25 44 45 41 45 -3 0 7
12 23 28 15 15 39 44 53 64 14 21 28 38 33 38 4 0 7 6 7 13 0 7 8 22 18 33 10
10 29 39 42 64 14 25 28 47 33 48 4 2 5 7 2 12 -3 4 2 13 10 20 8 7 15 21 15
31 0 11 5 19 12 19 6 0 9 3 5 6 -3 4 3 24 14 45 11 22 17 39 13 39 -4 0 -1 6
5 13 6 8 12 22 14 33 2 10 7 28 11 39 21 55 27 78 46 175 17 85 20 140 20 292
-1 103 -6 200 -10 215 -5 16 -14 55 -21 88 -7 33 -14 65 -15 70 -8 41 -60 181
-68 187 -6 4 -7 8 -3 8 9 0 -81 178 -99 198 -7 6 -16 21 -19 32 -3 11 -10 20
-15 20 -5 0 -11 8 -14 18 -4 9 -19 31 -34 49 -15 18 -34 41 -42 52 -9 11 -30
36 -48 55 -18 20 -32 38 -32 41 0 3 132 137 293 298 281 281 319 327 271 327
-8 0 -13 4 -10 9 3 5 -1 11 -9 15 -60 23 57 30 200 12 28 -3 84 -8 125 -10 41
-3 89 -7 105 -11 17 -3 55 -7 85 -9 30 -2 62 -6 70 -10 8 -3 47 -7 85 -10 39
-2 77 -6 85 -10 16 -6 73 -12 255 -26 171 -14 213 -21 226 -36 9 -11 9 -90 0
-347 -13 -364 -22 -494 -52 -727 -30 -240 -92 -550 -110 -550 -5 0 -9 -15 -9
-33 0 -30 -46 -172 -99 -303 -25 -64 -82 -171 -129 -244 -57 -87 -352 -371
-394 -378 -10 -2 -18 -10 -18 -17 0 -8 -17 -27 -37 -42 -20 -15 -55 -45 -78
-65 -22 -21 -43 -38 -47 -38 -3 0 -21 -15 -40 -33 -18 -18 -52 -48 -75 -67
-24 -19 -43 -40 -43 -47 0 -7 -7 -13 -16 -13 -13 0 -94 -59 -124 -90 -3 -3
-31 -25 -63 -49 -32 -24 -76 -61 -99 -82 -22 -22 -42 -39 -44 -39 -4 0 -47
-33 -194 -150 -19 -15 -81 -64 -137 -109 -57 -44 -106 -81 -109 -81 -4 0 -12
-6 -18 -14 -17 -20 -202 -166 -212 -166 -4 0 -22 -13 -39 -29 -53 -51 -379
-301 -393 -301 -7 0 -52 30 -100 67 -220 170 -249 192 -275 217 -15 14 -32 26
-38 26 -5 0 -12 7 -15 15 -4 8 -12 15 -18 15 -7 0 -29 15 -49 34 -20 18 -49
42 -64 51 -49 33 -350 269 -632 498 -53 43 -103 84 -111 90 -8 7 -38 31 -67
55 -28 23 -58 42 -67 42 -9 0 -16 8 -16 20 0 11 -4 20 -9 20 -6 0 -21 10 -35
22 -13 13 -35 32 -48 42 -13 11 -50 42 -83 70 -33 28 -73 62 -89 76 -17 14
-40 35 -52 48 -12 12 -24 22 -28 22 -4 0 -13 6 -20 13 -16 15 -138 124 -190
168 -33 29 -101 104 -168 187 -63 78 -215 429 -233 538 -4 21 -10 48 -15 59
-22 50 -69 306 -94 510 -32 256 -43 438 -53 843 l-6 282 81 0 c45 0 84 5 87
10 4 7 41 10 98 7 51 -2 106 1 122 6 17 5 59 11 95 13 36 2 72 7 80 10 8 3 53
8 100 10 47 2 92 7 100 10 8 3 57 8 109 10 52 3 111 8 131 13 20 4 74 9 120
10 46 1 87 4 92 7 4 3 76 7 159 10 83 3 170 9 193 13 22 4 116 8 207 9 143 2
166 0 166 -13z m1085 -508 c36 -7 70 -15 74 -20 4 -4 15 -7 25 -7 15 0 96 -37
109 -50 3 -3 17 -11 33 -19 15 -8 27 -18 27 -23 0 -4 5 -8 10 -8 6 0 21 -10
34 -22 l22 -23 -292 -291 c-160 -161 -294 -298 -296 -305 -2 -7 11 -29 29 -48
18 -19 36 -43 39 -53 3 -10 10 -18 15 -18 6 0 8 -4 5 -9 -4 -5 -2 -11 3 -13 5
-1 11 -10 13 -18 2 -8 7 -18 11 -21 5 -3 10 -12 11 -20 2 -8 6 -21 9 -29 36
-84 46 -281 21 -380 -18 -68 -73 -186 -105 -223 -57 -68 -143 -147 -158 -147
-5 0 -11 -3 -13 -7 -5 -11 -96 -56 -113 -56 -8 0 -15 -4 -15 -9 0 -4 -11 -8
-24 -8 -14 0 -37 -5 -53 -11 -44 -17 -219 -14 -288 6 -33 9 -70 19 -82 22 -13
3 -23 9 -23 14 0 5 -7 9 -16 9 -16 0 -106 58 -112 72 -2 4 -8 8 -14 8 -11 0
-38 25 -38 35 0 4 123 130 273 280 149 149 282 283 294 297 25 27 26 25 -35
96 -34 40 -82 138 -103 211 -39 134 -11 374 53 463 11 16 16 28 13 28 -4 0 0
6 7 14 7 7 20 24 28 36 53 79 207 200 255 200 8 0 15 4 15 8 0 9 71 30 124 37
21 2 41 7 44 10 9 9 113 4 184 -8z"/>
<path d="M4565 6990 c-3 -5 -4 -10 -1 -10 3 0 -2 -16 -10 -35 -8 -19 -12 -35
-9 -35 2 0 0 -12 -5 -26 -10 -25 -9 -25 28 -22 27 2 36 7 33 18 -2 8 -5 29 -8
45 -3 17 -9 37 -14 46 -4 9 -5 19 -2 23 3 3 4 6 0 6 -3 0 -9 -4 -12 -10z"/>
<path d="M5160 6197 c0 -13 -3 -27 -7 -31 -4 -4 -9 -18 -10 -31 -2 -13 -10
-43 -18 -66 -26 -73 -23 -79 44 -79 63 0 74 9 61 45 -4 11 -13 45 -20 75 -15
69 -30 110 -41 110 -5 0 -9 -10 -9 -23z"/>
<path d="M5695 6217 c-8 -32 -13 -118 -8 -136 3 -12 19 -17 61 -18 47 -2 62 1
82 20 29 26 37 67 20 107 -13 31 -33 40 -103 45 -41 3 -48 1 -52 -18z"/>
<path d="M2430 6143 c-75 -14 -100 -99 -75 -255 4 -26 7 -51 7 -55 0 -16 41
-88 57 -100 24 -19 102 -16 128 5 45 36 58 119 39 247 -4 28 -7 53 -6 58 1 13
-27 61 -47 79 -20 19 -64 27 -103 21z"/>
<path d="M1840 6063 c-72 -11 -68 -4 -55 -90 l11 -78 49 3 c62 3 91 17 104 51
15 38 10 62 -21 94 -27 26 -36 28 -88 20z"/>
</g>
</svg>
